<?xml version="1.0" encoding="UTF-8"?>
<svg id="Ebene_1" data-name="Ebene 1" xmlns="http://www.w3.org/2000/svg" viewBox="0 0 1024 1024">
  <defs>
    <style>
      .cls-1 {
        fill: #fff;
      }
    </style>
  </defs>
  <circle class="cls-1" cx="512" cy="512" r="512"/>
  <g>
    <path d="M483.2,457.25c0,24.57-3.59,48.8-10.75,72.67-7.16,23.87-17.83,46.22-31.98,67.03-14.15,20.83-31.22,39.14-51.16,55.01-19.96,15.86-42.65,28.42-68.06,37.6-25.41,9.24-53.29,13.81-83.68,13.81-5.11,0-11.88-.17-20.22-.53-8.37-.34-17.13-.59-26.37-.76-9.21-.2-18.25-.28-27.12-.28-7.86,0-15.95.08-24.29.28-8.37.17-16.23.34-23.56.51-7.33.2-13.56.45-18.67.76l1.54-10.25c10.92-.67,19.52-2.05,25.83-4.07,6.32-2.05,11.32-6.15,15.11-12.3,3.73-6.15,7.16-15.36,10.22-27.63l67.08-253.78c3.06-10.92,4.6-19.52,4.6-25.83s-2.56-10.84-7.69-13.56c-5.11-2.72-13.98-4.27-26.62-4.6l1.54-10.25c5.45.37,12.05.67,19.71,1.01,7.69.37,15.95.53,24.82.53h25.07c7.53-.34,16.03-.59,25.58-.76,9.55-.17,18.95-.34,28.16-.53,9.21-.17,17.04-.25,23.53-.25,48.8,0,85.53,9.8,110.3,29.43,24.71,19.63,37.09,48.55,37.09,86.74l-.03.03ZM233.49,694.18c24.91,0,47.34-4.52,67.31-13.59,19.94-9.04,37.6-21.65,52.99-37.85,15.36-16.2,28.14-34.87,38.38-56.05,10.22-21.14,17.91-43.94,23.02-68.32,5.11-24.37,7.67-49.39,7.67-74.97,0-30.69-7.86-53.88-23.53-69.58-15.7-15.67-41.3-23.53-76.77-23.53-9.88,0-17.58,1.18-23,3.59-5.48,2.39-9.91,6.65-13.31,12.78-3.43,6.15-6.82,15.36-10.25,27.63l-67.03,255.89c-2.75,10.25-4.27,18.67-4.63,25.36-.34,6.65,1.63,11.43,5.9,14.32,4.27,2.89,12.05,4.35,23.28,4.35l-.03-.03Z"/>
    <path d="M523.94,703v-366.66h60.4v366.66h-60.4ZM666.84,543.42h-99.2v-37.2h91.12c22.63,0,39.98-5.48,52.03-16.45,12.02-10.95,18.05-25.78,18.05-44.48s-6.04-32.96-18.05-43.94c-12.05-10.98-29.06-16.45-50.96-16.45h-92.18v-48.55h93.81c39.54,0,70.98,9.43,94.37,28.33,23.36,18.87,35.04,44.67,35.04,77.36s-11.23,58.24-33.7,75.5c-22.46,17.24-52.56,25.89-90.3,25.89h-.03ZM744.48,703l-22.13-98.14c-3.23-14.01-7.47-24.63-12.69-31.81-5.19-7.19-12.1-12.05-20.75-14.55-8.62-2.53-19.6-3.76-32.88-3.76h-78.17v-38.83h86.79c24.43,0,44.31,2.25,59.58,6.74,15.28,4.49,27.24,12.33,35.86,23.45,8.65,11.15,15.47,26.79,20.5,46.92l27.52,110.01h-63.63v-.03Z"/>
    <path d="M880.27,445.96c-8.62,0-16.51-1.46-23.75-4.41-7.22-2.95-13.51-6.99-18.87-12.19-5.34-5.19-9.49-11.32-12.41-18.39-2.95-7.1-4.41-14.83-4.41-23.19s1.46-16.29,4.41-23.36c2.95-7.08,7.08-13.25,12.41-18.48,5.36-5.25,11.65-9.32,18.87-12.19,7.24-2.89,15.16-4.35,23.75-4.35s16.54,1.46,23.84,4.41c7.27,2.95,13.59,6.99,18.95,12.19,5.36,5.19,9.46,11.32,12.35,18.39,2.89,7.1,4.35,14.85,4.35,23.36s-1.46,16.09-4.35,23.11-6.99,13.17-12.35,18.42c-5.34,5.25-11.68,9.32-18.95,12.27-7.3,2.95-15.25,4.41-23.84,4.41ZM880.27,438.71c7.44,0,14.24-1.26,20.36-3.76,6.12-2.5,11.51-6.09,16.12-10.7,4.61-4.6,8.17-10.02,10.7-16.2s3.76-12.94,3.76-20.27-1.24-13.98-3.76-20.22c-2.5-6.23-6.09-11.68-10.7-16.29-4.61-4.6-10-8.2-16.12-10.78-6.12-2.56-12.92-3.85-20.36-3.85s-14.12,1.29-20.3,3.85c-6.18,2.58-11.57,6.18-16.12,10.78-4.55,4.6-8.09,10.05-10.61,16.29-2.53,6.26-3.76,12.97-3.76,20.22s1.24,14.1,3.76,20.27c2.5,6.21,6.04,11.6,10.61,16.2,4.55,4.6,9.94,8.17,16.12,10.7,6.18,2.53,12.94,3.76,20.3,3.76ZM911.72,375.93h-18.39c-.84-3.03-2.36-5.45-4.55-7.16-2.19-1.71-4.94-2.58-8.17-2.58-4.72,0-8.34,1.91-10.84,5.73-2.5,3.82-3.76,9.1-3.76,15.81s1.26,11.93,3.76,15.72c2.5,3.76,6.12,5.67,10.84,5.67,3.03,0,5.7-.84,7.95-2.5,2.25-1.68,3.82-3.96,4.66-6.77h18.39c-1.68,7.97-5.25,13.87-10.75,17.69-5.53,3.85-12.05,5.76-19.6,5.76-10.39,0-18.56-3.17-24.54-9.52-5.98-6.35-8.96-15.05-8.96-26.03s2.95-19.74,8.87-26.2c5.92-6.43,14.07-9.66,24.46-9.66,7.55,0,14.18,2.02,19.91,6.07,5.7,4.04,9.29,10.02,10.75,18l-.03-.03Z"/>
  </g>
</svg>